<svg xmlns="http://www.w3.org/2000/svg" width="720" height="720" shape-rendering="crispEdges">
<path fill="#5D284E" d="M315 162h9v9h-9zm9 0h9v9h-9zm9 0h9v9h-9zm9 0h9v9h-9zm9 0h9v9h-9zm9 0h9v9h-9zm9 0h9v9h-9zm9 0h9v9h-9zm9 0h9v9h-9zm-108 9h9v9h-9zm9 0h9v9h-9zm9 0h9v9h-9zm9 0h9v9h-9zm90 0h9v9h-9zm9 0h9v9h-9zm9 0h9v9h-9zm-144 9h9v9h-9zm153 0h9v9h-9zm-162 9h9v9h-9zm171 0h9v9h-9zm-180 9h9v9h-9zm189 0h9v9h-9zm-189 9h9v9h-9zm189 0h9v9h-9zm-198 9h9v9h-9zm207 0h9v9h-9zm-207 9h9v9h-9zm207 0h9v9h-9zm-207 9h9v9h-9zm207 0h9v9h-9zm-216 9h9v9h-9zm216 0h9v9h-9zm-216 9h9v9h-9zm216 0h9v9h-9zm-216 9h9v9h-9zm216 0h9v9h-9zm-216 9h9v9h-9zm216 0h9v9h-9zm-216 9h9v9h-9zm216 0h9v9h-9zm-189 9h9v9h-9zm9 0h9v9h-9zm180 0h9v9h-9zm0 9h9v9h-9zm0 9h9v9h-9zm0 9h9v9h-9zm0 9h9v9h-9zm-198 9h9v9h-9zm198 0h9v9h-9zm-189 9h9v9h-9zm180 0h9v9h-9zm-171 9h9v9h-9zm9 0h9v9h-9zm153 0h9v9h-9zm-144 9h9v9h-9zm9 0h9v9h-9zm126 0h9v9h-9zm-117 9h9v9h-9zm9 0h9v9h-9zm99 0h9v9h-9zm-99 9h9v9h-9zm9 0h9v9h-9zm63 0h9v9h-9zm-81 9h9v9h-9zm90 0h9v9h-9zm-99 9h9v9h-9zm99 0h9v9h-9zm-108 9h9v9h-9zm108 0h9v9h-9zm-117 9h9v9h-9zm45 0h9v9h-9zm9 0h9v9h-9zm72 0h9v9h-9zm-126 9h9v9h-9zm36 0h9v9h-9zm18 0h9v9h-9zm72 0h9v9h-9zm-135 9h9v9h-9zm45 0h9v9h-9zm18 0h9v9h-9zm72 0h9v9h-9zm-135 9h9v9h-9zm36 0h9v9h-9zm27 0h9v9h-9zm72 0h9v9h-9zm-135 9h9v9h-9zm36 0h9v9h-9zm27 0h9v9h-9zm72 0h9v9h-9zm-135 9h9v9h-9zm45 0h9v9h-9zm18 0h9v9h-9zm72 0h9v9h-9zm-135 9h9v9h-9zm45 0h9v9h-9zm18 0h9v9h-9zm72 0h9v9h-9zm-135 9h9v9h-9zm45 0h9v9h-9zm9 0h9v9h-9zm81 0h9v9h-9zm-135 9h9v9h-9zm36 0h9v9h-9zm9 0h9v9h-9zm9 0h9v9h-9zm54 0h9v9h-9zm27 0h9v9h-9zm-126 9h9v9h-9zm9 0h9v9h-9zm9 0h9v9h-9zm18 0h9v9h-9zm45 0h9v9h-9zm9 0h9v9h-9zm36 0h9v9h-9zm-90 9h9v9h-9zm45 0h9v9h-9zm45 0h9v9h-9zm-90 9h9v9h-9zm45 0h9v9h-9zm45 0h9v9h-9zm-90 9h9v9h-9zm45 0h9v9h-9zm45 0h9v9h-9zm-90 9h9v9h-9zm45 0h9v9h-9zm45 0h9v9h-9zm-99 9h9v9h-9zm54 0h9v9h-9zm45 0h9v9h-9zm-99 9h9v9h-9zm45 0h9v9h-9zm18 0h9v9h-9zm36 0h9v9h-9zm-99 9h9v9h-9zm45 0h9v9h-9zm18 0h9v9h-9zm36 0h9v9h-9zm-99 9h9v9h-9zm45 0h9v9h-9zm18 0h9v9h-9zm36 0h9v9h-9zm-99 9h9v9h-9zm45 0h9v9h-9zm18 0h9v9h-9zm36 0h9v9h-9zm-99 9h9v9h-9zm36 0h9v9h-9zm27 0h9v9h-9zm36 0h9v9h-9zm-108 9h9v9h-9zm45 0h9v9h-9zm27 0h9v9h-9zm36 0h9v9h-9zm-108 9h9v9h-9zm45 0h9v9h-9zm27 0h9v9h-9zm36 0h9v9h-9zm-117 9h9v9h-9zm9 0h9v9h-9zm45 0h9v9h-9zm27 0h9v9h-9zm36 0h9v9h-9zm9 0h9v9h-9zm-135 9h9v9h-9zm54 0h9v9h-9zm36 0h9v9h-9zm54 0h9v9h-9zm-144 9h9v9h-9zm54 0h9v9h-9zm36 0h9v9h-9zm54 0h9v9h-9zm-135 9h9v9h-9zm9 0h9v9h-9zm9 0h9v9h-9zm9 0h9v9h-9zm9 0h9v9h-9zm54 0h9v9h-9zm9 0h9v9h-9zm9 0h9v9h-9zm9 0h9v9h-9zm9 0h9v9h-9z"/><path fill="#FEE7D7" d="M315 171h9v9h-9zm9 0h9v9h-9zm9 0h9v9h-9zm9 0h9v9h-9zm9 0h9v9h-9zm9 0h9v9h-9zm9 0h9v9h-9zm9 0h9v9h-9zm9 0h9v9h-9zm-108 9h9v9h-9zm9 0h9v9h-9zm9 0h9v9h-9zm9 0h9v9h-9zm9 0h9v9h-9zm9 0h9v9h-9zm9 0h9v9h-9zm9 0h9v9h-9zm9 0h9v9h-9zm9 0h9v9h-9zm9 0h9v9h-9zm9 0h9v9h-9zm9 0h9v9h-9zm9 0h9v9h-9zm9 0h9v9h-9zm9 0h9v9h-9zm-144 9h9v9h-9zm9 0h9v9h-9zm9 0h9v9h-9zm9 0h9v9h-9zm9 0h9v9h-9zm9 0h9v9h-9zm9 0h9v9h-9zm9 0h9v9h-9zm9 0h9v9h-9zm9 0h9v9h-9zm9 0h9v9h-9zm9 0h9v9h-9zm9 0h9v9h-9zm9 0h9v9h-9zm9 0h9v9h-9zm9 0h9v9h-9zm9 0h9v9h-9zm9 0h9v9h-9zm-162 9h9v9h-9zm9 0h9v9h-9zm9 0h9v9h-9zm9 0h9v9h-9zm9 0h9v9h-9zm9 0h9v9h-9zm9 0h9v9h-9zm9 0h9v9h-9zm9 0h9v9h-9zm9 0h9v9h-9zm9 0h9v9h-9zm9 0h9v9h-9zm9 0h9v9h-9zm9 0h9v9h-9zm9 0h9v9h-9zm9 0h9v9h-9zm9 0h9v9h-9zm9 0h9v9h-9zm9 0h9v9h-9zm9 0h9v9h-9zm-171 9h9v9h-9zm9 0h9v9h-9zm9 0h9v9h-9zm9 0h9v9h-9zm9 0h9v9h-9zm9 0h9v9h-9zm9 0h9v9h-9zm9 0h9v9h-9zm9 0h9v9h-9zm9 0h9v9h-9zm9 0h9v9h-9zm9 0h9v9h-9zm9 0h9v9h-9zm9 0h9v9h-9zm9 0h9v9h-9zm9 0h9v9h-9zm9 0h9v9h-9zm9 0h9v9h-9zm9 0h9v9h-9zm9 0h9v9h-9zm-180 9h9v9h-9zm9 0h9v9h-9zm9 0h9v9h-9zm9 0h9v9h-9zm9 0h9v9h-9zm9 0h9v9h-9zm9 0h9v9h-9zm9 0h9v9h-9zm9 0h9v9h-9zm9 0h9v9h-9zm9 0h9v9h-9zm9 0h9v9h-9zm9 0h9v9h-9zm9 0h9v9h-9zm9 0h9v9h-9zm9 0h9v9h-9zm9 0h9v9h-9zm9 0h9v9h-9zm9 0h9v9h-9zm9 0h9v9h-9zm9 0h9v9h-9zm9 0h9v9h-9zm-189 9h9v9h-9zm9 0h9v9h-9zm9 0h9v9h-9zm9 0h9v9h-9zm9 0h9v9h-9zm9 0h9v9h-9zm9 0h9v9h-9zm9 0h9v9h-9zm9 0h9v9h-9zm9 0h9v9h-9zm9 0h9v9h-9zm9 0h9v9h-9zm9 0h9v9h-9zm9 0h9v9h-9zm9 0h9v9h-9zm9 0h9v9h-9zm9 0h9v9h-9zm9 0h9v9h-9zm9 0h9v9h-9zm9 0h9v9h-9zm9 0h9v9h-9zm9 0h9v9h-9zm-189 9h9v9h-9zm9 0h9v9h-9zm9 0h9v9h-9zm9 0h9v9h-9zm9 0h9v9h-9zm9 0h9v9h-9zm9 0h9v9h-9zm9 0h9v9h-9zm9 0h9v9h-9zm9 0h9v9h-9zm9 0h9v9h-9zm9 0h9v9h-9zm9 0h9v9h-9zm9 0h9v9h-9zm9 0h9v9h-9zm9 0h9v9h-9zm9 0h9v9h-9zm9 0h9v9h-9zm9 0h9v9h-9zm9 0h9v9h-9zm9 0h9v9h-9zm9 0h9v9h-9zm-198 9h9v9h-9zm9 0h9v9h-9zm9 0h9v9h-9zm9 0h9v9h-9zm9 0h9v9h-9zm9 0h9v9h-9zm9 0h9v9h-9zm9 0h9v9h-9zm9 0h9v9h-9zm9 0h9v9h-9zm9 0h9v9h-9zm9 0h9v9h-9zm9 0h9v9h-9zm9 0h9v9h-9zm9 0h9v9h-9zm9 0h9v9h-9zm9 0h9v9h-9zm9 0h9v9h-9zm9 0h9v9h-9zm9 0h9v9h-9zm9 0h9v9h-9zm9 0h9v9h-9zm9 0h9v9h-9zm-198 9h9v9h-9zm9 0h9v9h-9zm9 0h9v9h-9zm9 0h9v9h-9zm9 0h9v9h-9zm9 0h9v9h-9zm9 0h9v9h-9zm9 0h9v9h-9zm9 0h9v9h-9zm9 0h9v9h-9zm9 0h9v9h-9zm9 0h9v9h-9zm9 0h9v9h-9zm9 0h9v9h-9zm9 0h9v9h-9zm9 0h9v9h-9zm9 0h9v9h-9zm9 0h9v9h-9zm9 0h9v9h-9zm9 0h9v9h-9zm9 0h9v9h-9zm9 0h9v9h-9zm9 0h9v9h-9zm-198 9h9v9h-9zm9 0h9v9h-9zm9 0h9v9h-9zm9 0h9v9h-9zm9 0h9v9h-9zm9 0h9v9h-9zm9 0h9v9h-9zm9 0h9v9h-9zm9 0h9v9h-9zm9 0h9v9h-9zm9 0h9v9h-9zm9 0h9v9h-9zm9 0h9v9h-9zm9 0h9v9h-9zm9 0h9v9h-9zm9 0h9v9h-9zm9 0h9v9h-9zm9 0h9v9h-9zm9 0h9v9h-9zm9 0h9v9h-9zm9 0h9v9h-9zm9 0h9v9h-9zm9 0h9v9h-9zm-198 9h9v9h-9zm9 0h9v9h-9zm9 0h9v9h-9zm9 0h9v9h-9zm9 0h9v9h-9zm9 0h9v9h-9zm9 0h9v9h-9zm9 0h9v9h-9zm9 0h9v9h-9zm9 0h9v9h-9zm9 0h9v9h-9zm9 0h9v9h-9zm9 0h9v9h-9zm9 0h9v9h-9zm9 0h9v9h-9zm9 0h9v9h-9zm9 0h9v9h-9zm9 0h9v9h-9zm9 0h9v9h-9zm9 0h9v9h-9zm9 0h9v9h-9zm9 0h9v9h-9zm9 0h9v9h-9zm-198 9h9v9h-9zm9 0h9v9h-9zm9 0h9v9h-9zm9 0h9v9h-9zm9 0h9v9h-9zm9 0h9v9h-9zm9 0h9v9h-9zm9 0h9v9h-9zm9 0h9v9h-9zm9 0h9v9h-9zm9 0h9v9h-9zm9 0h9v9h-9zm9 0h9v9h-9zm9 0h9v9h-9zm9 0h9v9h-9zm9 0h9v9h-9zm9 0h9v9h-9zm9 0h9v9h-9zm9 0h9v9h-9zm9 0h9v9h-9zm9 0h9v9h-9zm9 0h9v9h-9zm9 0h9v9h-9zm-153 9h9v9h-9zm9 0h9v9h-9zm9 0h9v9h-9zm9 0h9v9h-9zm9 0h9v9h-9zm9 0h9v9h-9zm9 0h9v9h-9zm9 0h9v9h-9zm9 0h9v9h-9zm9 0h9v9h-9zm9 0h9v9h-9zm9 0h9v9h-9zm9 0h9v9h-9zm9 0h9v9h-9zm9 0h9v9h-9zm9 0h9v9h-9zm9 0h9v9h-9zm9 0h9v9h-9zm-189 9h9v9h-9zm18 0h9v9h-9zm18 0h9v9h-9zm9 0h9v9h-9zm9 0h9v9h-9zm9 0h9v9h-9zm9 0h9v9h-9zm9 0h9v9h-9zm9 0h9v9h-9zm9 0h9v9h-9zm9 0h9v9h-9zm9 0h9v9h-9zm9 0h9v9h-9zm9 0h9v9h-9zm9 0h9v9h-9zm9 0h9v9h-9zm9 0h9v9h-9zm9 0h9v9h-9zm9 0h9v9h-9zm9 0h9v9h-9zm-189 9h9v9h-9zm27 0h9v9h-9zm9 0h9v9h-9zm9 0h9v9h-9zm9 0h9v9h-9zm9 0h9v9h-9zm9 0h9v9h-9zm9 0h9v9h-9zm9 0h9v9h-9zm9 0h9v9h-9zm9 0h9v9h-9zm9 0h9v9h-9zm9 0h9v9h-9zm9 0h9v9h-9zm9 0h9v9h-9zm9 0h9v9h-9zm9 0h9v9h-9zm9 0h9v9h-9zm9 0h9v9h-9zm9 0h9v9h-9zm-189 9h9v9h-9zm27 0h9v9h-9zm9 0h9v9h-9zm9 0h9v9h-9zm9 0h9v9h-9zm9 0h9v9h-9zm9 0h9v9h-9zm9 0h9v9h-9zm9 0h9v9h-9zm9 0h9v9h-9zm9 0h9v9h-9zm9 0h9v9h-9zm9 0h9v9h-9zm9 0h9v9h-9zm9 0h9v9h-9zm9 0h9v9h-9zm9 0h9v9h-9zm9 0h9v9h-9zm9 0h9v9h-9zm9 0h9v9h-9zm-189 9h9v9h-9zm27 0h9v9h-9zm9 0h9v9h-9zm9 0h9v9h-9zm9 0h9v9h-9zm9 0h9v9h-9zm9 0h9v9h-9zm9 0h9v9h-9zm9 0h9v9h-9zm9 0h9v9h-9zm9 0h9v9h-9zm9 0h9v9h-9zm9 0h9v9h-9zm9 0h9v9h-9zm9 0h9v9h-9zm9 0h9v9h-9zm9 0h9v9h-9zm9 0h9v9h-9zm9 0h9v9h-9zm-171 9h9v9h-9zm18 0h9v9h-9zm9 0h9v9h-9zm9 0h9v9h-9zm9 0h9v9h-9zm9 0h9v9h-9zm9 0h9v9h-9zm9 0h9v9h-9zm9 0h9v9h-9zm9 0h9v9h-9zm9 0h9v9h-9zm9 0h9v9h-9zm9 0h9v9h-9zm9 0h9v9h-9zm9 0h9v9h-9zm9 0h9v9h-9zm9 0h9v9h-9zm9 0h9v9h-9zm9 0h9v9h-9zm-153 9h9v9h-9zm9 0h9v9h-9zm9 0h9v9h-9zm9 0h9v9h-9zm9 0h9v9h-9zm9 0h9v9h-9zm9 0h9v9h-9zm9 0h9v9h-9zm9 0h9v9h-9zm9 0h9v9h-9zm9 0h9v9h-9zm9 0h9v9h-9zm9 0h9v9h-9zm9 0h9v9h-9zm9 0h9v9h-9zm9 0h9v9h-9zm9 0h9v9h-9zm-126 9h9v9h-9zm9 0h9v9h-9zm9 0h9v9h-9zm9 0h9v9h-9zm9 0h9v9h-9zm9 0h9v9h-9zm9 0h9v9h-9zm9 0h9v9h-9zm9 0h9v9h-9zm9 0h9v9h-9zm9 0h9v9h-9zm9 0h9v9h-9zm9 0h9v9h-9zm9 0h9v9h-9zm-99 9h9v9h-9zm9 0h9v9h-9zm9 0h9v9h-9zm9 0h9v9h-9zm9 0h9v9h-9zm9 0h9v9h-9zm9 0h9v9h-9zm9 0h9v9h-9zm9 0h9v9h-9zm9 0h9v9h-9zm-72 27h9v9h-9zm9 0h9v9h-9zm9 0h9v9h-9zm9 0h9v9h-9zm9 0h9v9h-9zm9 0h9v9h-9zm9 0h9v9h-9zm-63 9h9v9h-9zm9 0h9v9h-9zm9 0h9v9h-9zm9 0h9v9h-9zm9 0h9v9h-9zm9 0h9v9h-9zm9 0h9v9h-9zm9 0h9v9h-9zm9 0h9v9h-9zm-81 9h9v9h-9zm9 0h9v9h-9zm9 0h9v9h-9zm18 0h9v9h-9zm9 0h9v9h-9zm9 0h9v9h-9zm9 0h9v9h-9zm9 0h9v9h-9zm9 0h9v9h-9zm-90 9h9v9h-9zm9 0h9v9h-9zm45 0h9v9h-9zm9 0h9v9h-9zm9 0h9v9h-9zm9 0h9v9h-9zm9 0h9v9h-9zm-99 9h9v9h-9zm9 0h9v9h-9zm54 0h9v9h-9zm9 0h9v9h-9zm9 0h9v9h-9zm9 0h9v9h-9zm9 0h9v9h-9zm-99 9h9v9h-9zm9 0h9v9h-9zm54 0h9v9h-9zm9 0h9v9h-9zm9 0h9v9h-9zm9 0h9v9h-9zm9 0h9v9h-9zm-108 9h9v9h-9zm9 0h9v9h-9zm63 0h9v9h-9zm9 0h9v9h-9zm9 0h9v9h-9zm9 0h9v9h-9zm9 0h9v9h-9zm-108 9h9v9h-9zm9 0h9v9h-9zm63 0h9v9h-9zm9 0h9v9h-9zm9 0h9v9h-9zm9 0h9v9h-9zm9 0h9v9h-9zm-108 9h9v9h-9zm9 0h9v9h-9zm9 0h9v9h-9zm54 0h9v9h-9zm9 0h9v9h-9zm9 0h9v9h-9zm9 0h9v9h-9zm9 0h9v9h-9zm-108 9h9v9h-9zm9 0h9v9h-9zm9 0h9v9h-9zm45 0h9v9h-9zm9 0h9v9h-9zm9 0h9v9h-9zm9 0h9v9h-9zm9 0h9v9h-9zm9 0h9v9h-9zm-108 9h9v9h-9zm9 0h9v9h-9zm9 0h9v9h-9zm45 0h9v9h-9zm9 0h9v9h-9zm9 0h9v9h-9zm9 0h9v9h-9zm9 0h9v9h-9zm9 0h9v9h-9zm-45 9h9v9h-9zm9 0h9v9h-9zm9 0h9v9h-9zm-27 9h9v9h-9zm9 0h9v9h-9zm-9 9h9v9h-9zm9 0h9v9h-9zm-9 9h9v9h-9zm9 0h9v9h-9zm-9 9h9v9h-9zm9 0h9v9h-9zm-9 9h9v9h-9zm9 0h9v9h-9zm-18 9h9v9h-9zm9 0h9v9h-9zm9 0h9v9h-9zm-18 9h9v9h-9zm9 0h9v9h-9zm-9 9h9v9h-9zm9 0h9v9h-9zm-9 9h9v9h-9zm9 0h9v9h-9zm-9 9h9v9h-9zm9 0h9v9h-9zm-9 9h9v9h-9zm-9 9h9v9h-9zm9 0h9v9h-9zm-9 9h9v9h-9zm9 0h9v9h-9zm-9 9h9v9h-9zm9 0h9v9h-9zm-27 9h9v9h-9zm9 0h9v9h-9zm9 0h9v9h-9zm-18 9h9v9h-9zm9 0h9v9h-9zm9 0h9v9h-9z"/><path fill="#A23C76" d="M243 288h9v9h-9z"/><path fill="#803262" d="M252 288h9v9h-9zm-9 9h9v9h-9zm0 9h9v9h-9zm0 9h9v9h-9zm0 9h9v9h-9z"/><path fill="#FFDBCC" d="M279 288h9v9h-9zm0 9h9v9h-9zm162 27h9v9h-9zm-36 36h9v9h-9zm-90 54h9v9h-9zm27 0h9v9h-9zm-36 9h9v9h-9zm36 0h9v9h-9zm54 0h9v9h-9zm-90 9h9v9h-9zm36 0h9v9h-9zm54 0h9v9h-9zm-99 9h9v9h-9zm45 0h9v9h-9zm54 0h9v9h-9zm-99 9h9v9h-9zm45 0h9v9h-9zm54 0h9v9h-9zm-90 9h9v9h-9zm36 0h9v9h-9zm54 0h9v9h-9zm0 9h9v9h-9zm-63 18h9v9h-9zm18 9h9v9h-9zm-27 9h9v9h-9zm27 0h9v9h-9zm-27 9h9v9h-9zm27 0h9v9h-9zm-27 9h9v9h-9zm27 0h9v9h-9zm-27 9h9v9h-9zm27 0h9v9h-9zm-36 18h9v9h-9zm27 0h9v9h-9zm-27 9h9v9h-9zm27 0h9v9h-9zm-27 9h9v9h-9zm27 0h9v9h-9zm-27 9h9v9h-9zm0 9h9v9h-9zm18 0h9v9h-9zm0 9h9v9h-9zm-27 9h9v9h-9zm27 0h9v9h-9zm-27 9h9v9h-9zm-18 9h9v9h-9zm36 0h9v9h-9z"/><path fill="#FFD0C2" d="M261 297h9v9h-9zm180 36h9v9h-9zm-171 9h9v9h-9zm162 0h9v9h-9zm-144 9h9v9h-9zm135 0h9v9h-9zm-108 36h9v9h-9zm72 0h9v9h-9zm-81 9h9v9h-9zm-9 9h9v9h-9zm36 0h9v9h-9zm-45 9h9v9h-9zm108 0h9v9h-9zm-117 18h9v9h-9zm27 36h9v9h-9zm0 9h9v9h-9zm27 0h9v9h-9zm-54 9h9v9h-9zm9 0h9v9h-9zm9 0h9v9h-9zm72 0h9v9h-9zm-45 9h9v9h-9zm-9 45h9v9h-9zm36 0h9v9h-9zm-9 36h9v9h-9zm-36 18h9v9h-9zm27 18h9v9h-9zm-45 18h9v9h-9zm36 0h9v9h-9z"/><path fill="#FFBAAD" d="M261 306h9v9h-9zm9 0h9v9h-9zm0 9h9v9h-9zm0 9h9v9h-9zm36 36h9v9h-9zm108 0h9v9h-9zm-63 9h9v9h-9zm9 0h9v9h-9zm9 0h9v9h-9zm-36 9h9v9h-9zm9 0h9v9h-9zm9 0h9v9h-9zm9 0h9v9h-9zm9 0h9v9h-9zm9 0h9v9h-9zm18 99h9v9h-9zm-9 9h9v9h-9zm9 0h9v9h-9zm-18 9h9v9h-9zm9 0h9v9h-9zm9 0h9v9h-9zm-27 9h9v9h-9zm9 0h9v9h-9zm9 0h9v9h-9zm9 0h9v9h-9zm-27 9h9v9h-9zm9 0h9v9h-9zm9 0h9v9h-9zm9 0h9v9h-9zm-18 9h9v9h-9zm9 0h9v9h-9zm9 0h9v9h-9zm-18 9h9v9h-9zm9 0h9v9h-9zm9 0h9v9h-9zm-18 9h9v9h-9zm9 0h9v9h-9zm9 0h9v9h-9zm-18 9h9v9h-9zm9 0h9v9h-9zm9 0h9v9h-9zm-9 9h9v9h-9zm9 0h9v9h-9zm-9 9h9v9h-9zm9 0h9v9h-9zm-9 9h9v9h-9zm9 0h9v9h-9zm-9 9h9v9h-9zm9 0h9v9h-9zm-9 9h9v9h-9zm9 0h9v9h-9zm-9 9h9v9h-9zm9 0h9v9h-9zm-9 9h9v9h-9zm9 0h9v9h-9zm-9 9h9v9h-9zm9 0h9v9h-9zm9 0h9v9h-9zm-27 9h9v9h-9zm9 0h9v9h-9zm9 0h9v9h-9zm9 0h9v9h-9zm9 0h9v9h-9z"/><path fill="#FED1C2" d="M261 315h9v9h-9zm0 9h9v9h-9zm9 9h9v9h-9z"/><path fill="#BC5E4C" d="M324 369h9v9h-9zm9 0h9v9h-9zm9 0h9v9h-9zm36 0h9v9h-9zm9 0h9v9h-9zm9 0h9v9h-9zm9 0h9v9h-9z"/><path fill="#FFCBBC" d="M369 522h9v9h-9zm0 9h9v9h-9zm0 9h9v9h-9zm9 18h9v9h-9zm0 9h9v9h-9zm0 9h9v9h-9zm0 9h9v9h-9zm0 9h9v9h-9zm0 9h9v9h-9zm0 9h9v9h-9zm0 9h9v9h-9zm36 0h9v9h-9z"/>
</svg>