<svg xmlns="http://www.w3.org/2000/svg" width="720" height="720" shape-rendering="crispEdges">
<path fill="#C0CBDC" d="M315 297h9v9h-9zm9 0h9v9h-9zm99 0h9v9h-9zm-108 9h9v9h-9zm9 0h9v9h-9zm99 0h9v9h-9z"/><path fill="#FFF" d="M315 315h9v9h-9zm9 0h9v9h-9zm99 0h9v9h-9zm-108 9h9v9h-9zm9 0h9v9h-9zm99 0h9v9h-9zm-108 9h9v9h-9zm9 0h9v9h-9zm99 0h9v9h-9z"/><path fill="#5D284E" d="M315 288h9v9h-9zm9 0h9v9h-9zm9 0h9v9h-9zm9 0h9v9h-9zm63 0h9v9h-9zm9 0h9v9h-9zm9 0h9v9h-9zm-117 9h9v9h-9zm126 0h9v9h-9zm-126 9h9v9h-9zm126 0h9v9h-9z"/><path fill="#26A2A2" d="M333 297h9v9h-9zm9 0h9v9h-9zm63 0h9v9h-9zm9 0h9v9h-9zm-81 9h9v9h-9zm9 0h9v9h-9zm63 0h9v9h-9zm9 0h9v9h-9z"/><path fill="#3BE4D8" d="M333 315h9v9h-9zm9 0h9v9h-9zm63 0h9v9h-9zm9 0h9v9h-9zm-81 9h9v9h-9zm9 0h9v9h-9zm63 0h9v9h-9zm9 0h9v9h-9zm-81 9h9v9h-9zm9 0h9v9h-9zm63 0h9v9h-9zm9 0h9v9h-9z"/>
</svg>