<svg xmlns="http://www.w3.org/2000/svg" width="720" height="720" shape-rendering="crispEdges">
<path fill="#C0CBDC" d="M315 297h9v9h-9zm9 0h9v9h-9zm99 0h9v9h-9zm-108 9h9v9h-9zm9 0h9v9h-9zm99 0h9v9h-9z"/><path fill="#FFF" d="M315 315h9v9h-9zm9 0h9v9h-9zm99 0h9v9h-9zm-108 9h9v9h-9zm9 0h9v9h-9zm99 0h9v9h-9zm-108 9h9v9h-9zm9 0h9v9h-9zm99 0h9v9h-9z"/><path fill="#5D284E" d="M315 288h9v9h-9zm9 0h9v9h-9zm9 0h9v9h-9zm9 0h9v9h-9zm63 0h9v9h-9zm9 0h9v9h-9zm9 0h9v9h-9zm-117 9h9v9h-9zm126 0h9v9h-9zm-126 9h9v9h-9zm126 0h9v9h-9z"/><path fill="#7AAA1A" d="M333 297h9v9h-9zm81 0h9v9h-9zm-81 9h9v9h-9zm81 0h9v9h-9z"/><path fill="#4B6A0C" d="M342 297h9v9h-9zm63 0h9v9h-9z"/><path fill="#273A00" d="M342 306h9v9h-9zm63 0h9v9h-9zm-63 9h9v9h-9zm63 0h9v9h-9zm-63 9h9v9h-9zm63 0h9v9h-9z"/><path fill="#6A8F21" d="M333 315h9v9h-9zm81 0h9v9h-9zm-72 18h9v9h-9zm63 0h9v9h-9z"/><path fill="#C3FF4D" d="M333 324h9v9h-9zm81 0h9v9h-9zm-81 9h9v9h-9zm81 0h9v9h-9z"/>
</svg>